name rise30.8019peak61.5557fall86.2505.mot
datacolumns 19
datarows 18
range 14.02994900000000 14.05827900000000
endheader
time	ground_force1_vx	ground_force1_vy	ground_force1_vz	ground_force1_px	ground_force1_py	ground_force1_pz	ground_force2_vx	ground_force2_vy	ground_force2_vz	ground_force2_px	ground_force2_py	ground_force2_pz	ground_torque1_x	ground_torque1_y	ground_torque1_z	ground_torque2_x	ground_torque2_y	ground_torque2_z	
14.02994900000000	-6.71891700000000	677.41718100000003	31.85621100000000	0.07559400000000	0.00000000000000	0.10998400000000	0.00000000000000	0.00000000000000	0.00000000000000	0.00000000000000	0.00000000000000	0.00000000000000	0.00000000000000	8.46489000000000	0.00000000000000	0.00000000000000	0.00000000000000	0.00000000000000	
14.03161600000000	-7.25538300000000	678.04208800000004	31.86793700000000	0.07451100000000	0.00000000000000	0.10999500000000	0.00000000000000	0.00000000000000	0.00000000000000	0.00000000000000	0.00000000000000	0.00000000000000	0.00000000000000	8.56369800000000	0.00000000000000	0.00000000000000	0.00000000000000	0.00000000000000	
14.03328600000000	-7.80476700000000	678.70261900000003	31.88161900000000	0.07342900000000	0.00000000000000	0.11000500000000	0.00000000000000	0.00000000000000	0.00000000000000	0.00000000000000	0.00000000000000	0.00000000000000	0.00000000000000	8.66661700000000	0.00000000000000	0.00000000000000	0.00000000000000	0.00000000000000	
14.03495000000000	-8.36683400000000	679.40091399999994	31.89741500000000	0.07234700000000	0.00000000000000	0.11001600000000	0.00000000000000	0.00000000000000	0.00000000000000	0.00000000000000	0.00000000000000	0.00000000000000	0.00000000000000	8.77361300000000	0.00000000000000	0.00000000000000	0.00000000000000	0.00000000000000	
14.03661200000000	-8.94132300000000	680.13914299999999	31.91548900000000	0.07126600000000	0.00000000000000	0.11002600000000	0.00000000000000	0.00000000000000	0.00000000000000	0.00000000000000	0.00000000000000	0.00000000000000	0.00000000000000	8.88464000000000	0.00000000000000	0.00000000000000	0.00000000000000	0.00000000000000	
14.03828400000000	-9.52794300000000	680.91948700000000	31.93601500000000	0.07018700000000	0.00000000000000	0.11003700000000	0.00000000000000	0.00000000000000	0.00000000000000	0.00000000000000	0.00000000000000	0.00000000000000	0.00000000000000	8.99964200000000	0.00000000000000	0.00000000000000	0.00000000000000	0.00000000000000	
14.03995400000000	-10.12637600000000	681.74412600000005	31.95916700000000	0.06910900000000	0.00000000000000	0.11004700000000	0.00000000000000	0.00000000000000	0.00000000000000	0.00000000000000	0.00000000000000	0.00000000000000	0.00000000000000	9.11855400000000	0.00000000000000	0.00000000000000	0.00000000000000	0.00000000000000	
14.04161800000000	-10.73628000000000	682.61522900000000	31.98512800000000	0.06803200000000	0.00000000000000	0.11005800000000	0.00000000000000	0.00000000000000	0.00000000000000	0.00000000000000	0.00000000000000	0.00000000000000	0.00000000000000	9.24129900000000	0.00000000000000	0.00000000000000	0.00000000000000	0.00000000000000	
14.04328700000000	-11.35728200000000	683.53493600000002	32.01408300000000	0.06695800000000	0.00000000000000	0.11006800000000	0.00000000000000	0.00000000000000	0.00000000000000	0.00000000000000	0.00000000000000	0.00000000000000	0.00000000000000	9.36778700000000	0.00000000000000	0.00000000000000	0.00000000000000	0.00000000000000	
14.04494900000000	-11.98898900000000	684.50534600000003	32.04622000000000	0.06588700000000	0.00000000000000	0.11007900000000	0.00000000000000	0.00000000000000	0.00000000000000	0.00000000000000	0.00000000000000	0.00000000000000	0.00000000000000	9.49792100000000	0.00000000000000	0.00000000000000	0.00000000000000	0.00000000000000	
14.04662100000000	-12.63097900000000	685.52850500000000	32.08173000000000	0.06481800000000	0.00000000000000	0.11009000000000	0.00000000000000	0.00000000000000	0.00000000000000	0.00000000000000	0.00000000000000	0.00000000000000	0.00000000000000	9.63158700000000	0.00000000000000	0.00000000000000	0.00000000000000	0.00000000000000	
14.04828500000000	-13.28281000000000	686.60638600000004	32.12080700000000	0.06375200000000	0.00000000000000	0.11010100000000	0.00000000000000	0.00000000000000	0.00000000000000	0.00000000000000	0.00000000000000	0.00000000000000	0.00000000000000	9.76866500000000	0.00000000000000	0.00000000000000	0.00000000000000	0.00000000000000	
14.04995400000000	-13.94401700000000	687.74088300000005	32.16364500000000	0.06268900000000	0.00000000000000	0.11011200000000	0.00000000000000	0.00000000000000	0.00000000000000	0.00000000000000	0.00000000000000	0.00000000000000	0.00000000000000	9.90902000000000	0.00000000000000	0.00000000000000	0.00000000000000	0.00000000000000	
14.05161400000000	-14.61411000000000	688.93379000000004	32.21043900000000	0.06163000000000	0.00000000000000	0.11012300000000	0.00000000000000	0.00000000000000	0.00000000000000	0.00000000000000	0.00000000000000	0.00000000000000	0.00000000000000	10.05250600000000	0.00000000000000	0.00000000000000	0.00000000000000	0.00000000000000	
14.05327900000000	-15.29258100000000	690.18679299999997	32.26138700000000	0.06057400000000	0.00000000000000	0.11013400000000	0.00000000000000	0.00000000000000	0.00000000000000	0.00000000000000	0.00000000000000	0.00000000000000	0.00000000000000	10.19896600000000	0.00000000000000	0.00000000000000	0.00000000000000	0.00000000000000	
14.05495400000000	-15.97890200000000	691.50145299999997	32.31668500000000	0.05952100000000	0.00000000000000	0.11014600000000	0.00000000000000	0.00000000000000	0.00000000000000	0.00000000000000	0.00000000000000	0.00000000000000	0.00000000000000	10.34823300000000	0.00000000000000	0.00000000000000	0.00000000000000	0.00000000000000	
14.05662000000000	-16.67252500000000	692.87919299999999	32.37652800000000	0.05847300000000	0.00000000000000	0.11015800000000	0.00000000000000	0.00000000000000	0.00000000000000	0.00000000000000	0.00000000000000	0.00000000000000	0.00000000000000	10.50012600000000	0.00000000000000	0.00000000000000	0.00000000000000	0.00000000000000	
14.05827900000000	-17.37288400000000	694.32128999999998	32.44111200000000	0.05742900000000	0.00000000000000	0.11017000000000	0.00000000000000	0.00000000000000	0.00000000000000	0.00000000000000	0.00000000000000	0.00000000000000	0.00000000000000	10.65445500000000	0.00000000000000	0.00000000000000	0.00000000000000	0.00000000000000	
